<?xml version="1.0" encoding="UTF-8" standalone="no"?><svg xmlns="http://www.w3.org/2000/svg" xmlns:xlink="http://www.w3.org/1999/xlink" contentScriptType="application/ecmascript" contentStyleType="text/css" height="335px" preserveAspectRatio="none" style="width:117px;height:335px;" version="1.1" viewBox="0 0 117 335" width="117px" zoomAndPan="magnify"><defs><filter height="300%" id="fbilujz29k8cm" width="300%" x="-1" y="-1"><feGaussianBlur result="blurOut" stdDeviation="2.0"/><feColorMatrix in="blurOut" result="blurOut2" type="matrix" values="0 0 0 0 0 0 0 0 0 0 0 0 0 0 0 0 0 0 .4 0"/><feOffset dx="4.0" dy="4.0" in="blurOut2" result="blurOut3"/><feBlend in="SourceGraphic" in2="blurOut3" mode="normal"/></filter></defs><g><ellipse cx="56" cy="18" fill="#000000" filter="url(#fbilujz29k8cm)" rx="10" ry="10" style="stroke: none; stroke-width: 1.0;"/><rect fill="#FEFECE" filter="url(#fbilujz29k8cm)" height="34.1328" rx="12.5" ry="12.5" style="stroke: #A80036; stroke-width: 1.5;" width="64" x="24" y="68"/><text fill="#000000" font-family="sans-serif" font-size="12" lengthAdjust="spacingAndGlyphs" textLength="44" x="34" y="89.6016">null,null</text><rect fill="#FEFECE" filter="url(#fbilujz29k8cm)" height="34.1328" rx="12.5" ry="12.5" style="stroke: #A80036; stroke-width: 1.5;" width="52" x="30" y="142"/><text fill="#000000" font-family="sans-serif" font-size="12" lengthAdjust="spacingAndGlyphs" textLength="32" x="40" y="163.6016">null,0</text><rect fill="#FF0000" filter="url(#fbilujz29k8cm)" height="34.1328" rx="12.5" ry="12.5" style="stroke: #A80036; stroke-width: 1.5;" width="40" x="36" y="216"/><text fill="#000000" font-family="sans-serif" font-size="12" lengthAdjust="spacingAndGlyphs" textLength="20" x="46" y="237.6016">0,0</text><rect fill="#FEFECE" filter="url(#fbilujz29k8cm)" height="34.1328" rx="12.5" ry="12.5" style="stroke: #A80036; stroke-width: 1.5;" width="40" x="6" y="290"/><text fill="#000000" font-family="sans-serif" font-size="12" lengthAdjust="spacingAndGlyphs" textLength="20" x="16" y="311.6016">1,0</text><rect fill="#FEFECE" filter="url(#fbilujz29k8cm)" height="34.1328" rx="12.5" ry="12.5" style="stroke: #A80036; stroke-width: 1.5;" width="40" x="66" y="290"/><text fill="#000000" font-family="sans-serif" font-size="12" lengthAdjust="spacingAndGlyphs" textLength="20" x="76" y="311.6016">0,1</text><!--link start to null,null--><path d="M56,28.1759 C56,37.3186 56,51.0626 56,62.7436 " fill="none" id="start-null,null" style="stroke: #A80036; stroke-width: 1.0;"/><polygon fill="#A80036" points="56,67.9414,60,58.9414,56,62.9414,52,58.9414,56,67.9414" style="stroke: #A80036; stroke-width: 1.0;"/><!--link null,null to null,0--><path d="M56,102.1631 C56,112.4368 56,125.6075 56,136.6831 " fill="none" id="null,null-null,0" style="stroke: #A80036; stroke-width: 1.0;"/><polygon fill="#A80036" points="56,141.93,60,132.93,56,136.93,52,132.93,56,141.93" style="stroke: #A80036; stroke-width: 1.0;"/><!--link null,0 to 0,0--><path d="M56,176.1631 C56,186.4368 56,199.6075 56,210.6831 " fill="none" id="null,0-0,0" style="stroke: #A80036; stroke-width: 1.0;"/><polygon fill="#A80036" points="56,215.93,60,206.93,56,210.93,52,206.93,56,215.93" style="stroke: #A80036; stroke-width: 1.0;"/><!--link 0,0 to 1,0--><path d="M42.5967,250.1631 C37.1711,260.5302 31.6127,273.8473 28.001,284.9846 " fill="none" id="0,0-1,0" style="stroke: #A80036; stroke-width: 1.0;"/><polygon fill="#A80036" points="26.486,289.93,32.9468,282.4964,27.9506,285.1493,25.2977,280.1531,26.486,289.93" style="stroke: #A80036; stroke-width: 1.0;"/><!--link 1,0 to 0,0--><path d="M39.3546,289.93 C44.7793,279.5806 50.3431,266.2659 53.9665,255.1155 " fill="none" id="1,0-0,0" style="stroke: #A80036; stroke-width: 1.0;"/><polygon fill="#A80036" points="55.4873,250.1631,49.0216,257.5924,54.0196,254.9428,56.6692,259.9408,55.4873,250.1631" style="stroke: #A80036; stroke-width: 1.0;"/><!--link 0,0 to 0,1--><path d="M56.5127,250.1631 C59.5198,260.6236 64.8267,274.0874 70.2972,285.2851 " fill="none" id="0,0-0,1" style="stroke: #A80036; stroke-width: 1.0;"/><polygon fill="#A80036" points="72.6454,289.93,72.1543,280.0934,70.3894,285.4679,65.0149,283.703,72.6454,289.93" style="stroke: #A80036; stroke-width: 1.0;"/><!--link 0,1 to 0,0--><path d="M85.514,289.93 C82.5206,279.4873 77.221,266.0257 71.7516,254.8147 " fill="none" id="0,1-0,0" style="stroke: #A80036; stroke-width: 1.0;"/><polygon fill="#A80036" points="69.4033,250.1631,69.8886,260,71.6567,254.6265,77.0301,256.3946,69.4033,250.1631" style="stroke: #A80036; stroke-width: 1.0;"/><!--
@startuml
(*) - -> "null,null"
"null,null" - -> "null,0"
"null,0" - -> "0,0"
"0,0" - -> "1,0"
"1,0" - -> "0,0"
"0,0" - -> "0,1"
"0,1" - -> "0,0" #red
@enduml

PlantUML version 1.2018.09(Fri Jul 27 12:58:18 EDT 2018)
(EPL source distribution)
Java Runtime: Java(TM) SE Runtime Environment
JVM: Java HotSpot(TM) 64-Bit Server VM
Java Version: 1.8.0_181-b13
Operating System: Mac OS X
OS Version: 10.13.4
Default Encoding: UTF-8
Language: en
Country: US
--></g></svg>