<?xml version="1.0" encoding="UTF-8" standalone="no"?><svg xmlns="http://www.w3.org/2000/svg" xmlns:xlink="http://www.w3.org/1999/xlink" contentScriptType="application/ecmascript" contentStyleType="text/css" height="483px" preserveAspectRatio="none" style="width:165px;height:483px;" version="1.1" viewBox="0 0 165 483" width="165px" zoomAndPan="magnify"><defs><filter height="300%" id="f74ax5di1r8ti" width="300%" x="-1" y="-1"><feGaussianBlur result="blurOut" stdDeviation="2.0"/><feColorMatrix in="blurOut" result="blurOut2" type="matrix" values="0 0 0 0 0 0 0 0 0 0 0 0 0 0 0 0 0 0 .4 0"/><feOffset dx="4.0" dy="4.0" in="blurOut2" result="blurOut3"/><feBlend in="SourceGraphic" in2="blurOut3" mode="normal"/></filter></defs><g><ellipse cx="80" cy="18" fill="#000000" filter="url(#f74ax5di1r8ti)" rx="10" ry="10" style="stroke: none; stroke-width: 1.0;"/><rect fill="#FEFECE" filter="url(#f74ax5di1r8ti)" height="34.1328" rx="12.5" ry="12.5" style="stroke: #A80036; stroke-width: 1.5;" width="112" x="24" y="68"/><text fill="#000000" font-family="sans-serif" font-size="12" lengthAdjust="spacingAndGlyphs" textLength="92" x="34" y="89.6016">null,null,null,null</text><rect fill="#FEFECE" filter="url(#f74ax5di1r8ti)" height="34.1328" rx="12.5" ry="12.5" style="stroke: #A80036; stroke-width: 1.5;" width="100" x="30" y="142"/><text fill="#000000" font-family="sans-serif" font-size="12" lengthAdjust="spacingAndGlyphs" textLength="80" x="40" y="163.6016">null,0,null,null</text><rect fill="#FEFECE" filter="url(#f74ax5di1r8ti)" height="34.1328" rx="12.5" ry="12.5" style="stroke: #A80036; stroke-width: 1.5;" width="88" x="36" y="216"/><text fill="#000000" font-family="sans-serif" font-size="12" lengthAdjust="spacingAndGlyphs" textLength="68" x="46" y="237.6016">0,0,null,null</text><rect fill="#FEFECE" filter="url(#f74ax5di1r8ti)" height="34.1328" rx="12.5" ry="12.5" style="stroke: #A80036; stroke-width: 1.5;" width="76" x="42" y="290"/><text fill="#000000" font-family="sans-serif" font-size="12" lengthAdjust="spacingAndGlyphs" textLength="56" x="52" y="311.6016">0,0,null,0</text><rect fill="#FF0000" filter="url(#f74ax5di1r8ti)" height="34.1328" rx="12.5" ry="12.5" style="stroke: #A80036; stroke-width: 1.5;" width="64" x="48" y="364"/><text fill="#000000" font-family="sans-serif" font-size="12" lengthAdjust="spacingAndGlyphs" textLength="44" x="58" y="385.6016">0,0,0,0</text><rect fill="#FEFECE" filter="url(#f74ax5di1r8ti)" height="34.1328" rx="12.5" ry="12.5" style="stroke: #A80036; stroke-width: 1.5;" width="64" x="6" y="438"/><text fill="#000000" font-family="sans-serif" font-size="12" lengthAdjust="spacingAndGlyphs" textLength="44" x="16" y="459.6016">1,0,0,0</text><rect fill="#FEFECE" filter="url(#f74ax5di1r8ti)" height="34.1328" rx="12.5" ry="12.5" style="stroke: #A80036; stroke-width: 1.5;" width="64" x="90" y="438"/><text fill="#000000" font-family="sans-serif" font-size="12" lengthAdjust="spacingAndGlyphs" textLength="44" x="100" y="459.6016">0,1,0,0</text><!--link start to null,null,null,null--><path d="M80,28.1759 C80,37.3186 80,51.0626 80,62.7436 " fill="none" id="start-null,null,null,null" style="stroke: #A80036; stroke-width: 1.0;"/><polygon fill="#A80036" points="80,67.9414,84,58.9414,80,62.9414,76,58.9414,80,67.9414" style="stroke: #A80036; stroke-width: 1.0;"/><!--link null,null,null,null to null,0,null,null--><path d="M80,102.1631 C80,112.4368 80,125.6075 80,136.6831 " fill="none" id="null,null,null,null-null,0,null,null" style="stroke: #A80036; stroke-width: 1.0;"/><polygon fill="#A80036" points="80,141.93,84,132.93,80,136.93,76,132.93,80,141.93" style="stroke: #A80036; stroke-width: 1.0;"/><!--link null,0,null,null to 0,0,null,null--><path d="M80,176.1631 C80,186.4368 80,199.6075 80,210.6831 " fill="none" id="null,0,null,null-0,0,null,null" style="stroke: #A80036; stroke-width: 1.0;"/><polygon fill="#A80036" points="80,215.93,84,206.93,80,210.93,76,206.93,80,215.93" style="stroke: #A80036; stroke-width: 1.0;"/><!--link 0,0,null,null to 0,0,null,0--><path d="M80,250.1631 C80,260.4368 80,273.6075 80,284.6831 " fill="none" id="0,0,null,null-0,0,null,0" style="stroke: #A80036; stroke-width: 1.0;"/><polygon fill="#A80036" points="80,289.93,84,280.93,80,284.93,76,280.93,80,289.93" style="stroke: #A80036; stroke-width: 1.0;"/><!--link 0,0,null,0 to 0,0,0,0--><path d="M80,324.1631 C80,334.4368 80,347.6075 80,358.6831 " fill="none" id="0,0,null,0-0,0,0,0" style="stroke: #A80036; stroke-width: 1.0;"/><polygon fill="#A80036" points="80,363.93,84,354.93,80,358.93,76,354.93,80,363.93" style="stroke: #A80036; stroke-width: 1.0;"/><!--link 0,0,0,0 to 1,0,0,0--><path d="M63.8135,398.1631 C56.6428,408.6236 48.8497,422.0874 43.4252,433.2851 " fill="none" id="0,0,0,0-1,0,0,0" style="stroke: #A80036; stroke-width: 1.0;"/><polygon fill="#A80036" points="41.2541,437.93,48.6889,431.4706,43.3714,433.4004,41.4416,428.0829,41.2541,437.93" style="stroke: #A80036; stroke-width: 1.0;"/><!--link 1,0,0,0 to 0,0,0,0--><path d="M54.1227,437.93 C61.2897,427.4873 69.0879,414.0257 74.5265,402.8147 " fill="none" id="1,0,0,0-0,0,0,0" style="stroke: #A80036; stroke-width: 1.0;"/><polygon fill="#A80036" points="76.7041,398.1631,69.2654,404.618,74.5841,402.6914,76.5107,408.0101,76.7041,398.1631" style="stroke: #A80036; stroke-width: 1.0;"/><!--link 0,0,0,0 to 0,1,0,0--><path d="M83.2959,398.1631 C88.0413,408.717 95.6235,422.3281 102.9709,433.5845 " fill="none" id="0,0,0,0-0,1,0,0" style="stroke: #A80036; stroke-width: 1.0;"/><polygon fill="#A80036" points="105.8773,437.93,104.1987,428.2252,103.0976,433.7739,97.549,432.6727,105.8773,437.93" style="stroke: #A80036; stroke-width: 1.0;"/><!--link 0,1,0,0 to 0,0,0,0--><path d="M118.7459,437.93 C114.0173,427.3941 106.4427,413.7851 99.0939,402.5149 " fill="none" id="0,1,0,0-0,0,0,0" style="stroke: #A80036; stroke-width: 1.0;"/><polygon fill="#A80036" points="96.1865,398.1631,97.8601,407.8687,98.9641,402.3206,104.5121,403.4246,96.1865,398.1631" style="stroke: #A80036; stroke-width: 1.0;"/><!--
@startuml
(*) - -> "null,null,null,null"
"null,null,null,null" - -> "null,0,null,null"
"null,0,null,null" - -> "0,0,null,null"
"0,0,null,null" - -> "0,0,null,0"
"0,0,null,0" - -> "0,0,0,0"
"0,0,0,0" - -> "1,0,0,0"
"1,0,0,0" - -> "0,0,0,0"
"0,0,0,0" - -> "0,1,0,0"
"0,1,0,0" - -> "0,0,0,0" #red
@enduml

PlantUML version 1.2018.09(Fri Jul 27 12:58:18 EDT 2018)
(EPL source distribution)
Java Runtime: Java(TM) SE Runtime Environment
JVM: Java HotSpot(TM) 64-Bit Server VM
Java Version: 1.8.0_181-b13
Operating System: Mac OS X
OS Version: 10.13.4
Default Encoding: UTF-8
Language: en
Country: US
--></g></svg>